<svg xmlns="http://www.w3.org/2000/svg" version="1.1" xmlns:xlink="http://www.w3.org/1999/xlink" xmlns:svgjs="http://svgjs.dev/svgjs" width="2000" height="747" viewBox="0 0 2000 747"><g transform="matrix(1,0,0,1,-1.2121212121212466,-0.7004912161505672)"><svg viewBox="0 0 396 148" data-background-color="#000000" preserveAspectRatio="xMidYMid meet" height="747" width="2000" xmlns="http://www.w3.org/2000/svg" xmlns:xlink="http://www.w3.org/1999/xlink"><g id="tight-bounds" transform="matrix(1,0,0,1,0.2400000000000091,0.13878540828686425)"><svg viewBox="0 0 395.52 147.72242918342627" height="147.72242918342627" width="395.52"><g><svg viewBox="0 0 719.8990786014735 268.874496" height="147.72242918342627" width="395.52"><g transform="matrix(1,0,0,1,324.37907860147357,87.4146090180844)"><svg viewBox="0 0 395.52 94.04527796383121" height="94.04527796383121" width="395.52"><g id="textblocktransform"><svg viewBox="0 0 395.52 94.04527796383121" height="94.04527796383121" width="395.52" id="textblock"><g><svg viewBox="0 0 395.52 94.04527796383121" height="94.04527796383121" width="395.52"><g transform="matrix(1,0,0,1,0,0)"><svg width="395.52" viewBox="1.45 -23.4 149.29000000000002 35.5" height="94.04527796383121" data-palette-color="url(#bc87f3b5-c266-418f-bf95-28c992a755d2)"></svg></g></svg></g></svg></g></svg></g><g><svg viewBox="0 0 268.874496 268.874496" height="268.874496" width="268.874496"><g><svg viewBox="0 0 268.874496 268.874496" height="268.874496" width="268.874496"><g transform="matrix(1,0,0,1,71.06292153009494,71.08127818164809)"><svg viewBox="0 0 126.74865293981016 126.71193963670386" height="126.71193963670386" width="126.74865293981016"><g><svg xmlns="http://www.w3.org/2000/svg" xmlns:xlink="http://www.w3.org/1999/xlink" version="1.1" x="0" y="0" viewBox="0.45572546217846854 0.468 95.09154368259615 95.064" enable-background="new 0 0 96 96" xml:space="preserve" height="126.71193963670386" width="126.74865293981016" class="icon-dxe-0" data-fill-palette-color="accent" id="dxe-0"></svg></g></svg></g><g id="text-0"></g><g id="text-1"></g></svg></g></svg></g></svg></g><defs></defs><mask id="328024d1-40b9-4c73-8235-3ff24ff87db6"><g id="SvgjsG2878"><svg viewBox="0 0 395.52 147.72242918342627" height="147.72242918342627" width="395.52"><g><svg viewBox="0 0 719.8990786014735 268.874496" height="147.72242918342627" width="395.52"><g transform="matrix(1,0,0,1,324.37907860147357,87.4146090180844)"><svg viewBox="0 0 395.52 94.04527796383121" height="94.04527796383121" width="395.52"><g id="SvgjsG2877"><svg viewBox="0 0 395.52 94.04527796383121" height="94.04527796383121" width="395.52" id="SvgjsSvg2876"><g><svg viewBox="0 0 395.52 94.04527796383121" height="94.04527796383121" width="395.52"><g transform="matrix(1,0,0,1,0,0)"><svg width="395.52" viewBox="1.45 -23.4 149.29000000000002 35.5" height="94.04527796383121" data-palette-color="url(#bc87f3b5-c266-418f-bf95-28c992a755d2)"><path d="M16.55-21.9L15.3-18.8Q12.75-19.9 10.5-19.9L10.5-19.9Q6.15-19.9 6.15-17.25L6.15-17.25Q6.15-14.95 11.95-12.8L11.95-12.8Q14.1-12 15.93-10.3 17.75-8.6 17.75-6.2L17.75-6.2Q17.75-2.75 15.5-1.07 13.25 0.6 9.25 0.6 5.25 0.6 1.45-1.6L1.45-1.6 2.7-4.7Q5.85-2.9 9.85-2.9L9.85-2.9Q11.55-2.9 12.6-3.63 13.65-4.35 13.65-5.6 13.65-6.85 12.45-7.75 11.25-8.65 9.55-9.35 7.85-10.05 6.15-10.88 4.45-11.7 3.25-13.2 2.05-14.7 2.05-16.75L2.05-16.75Q2.05-19.95 4.23-21.68 6.4-23.4 9.75-23.4 13.1-23.4 16.55-21.9L16.55-21.9ZM30.8 4.05Q29.15 8.85 27.77 10.48 26.4 12.1 23.7 12.1 21 12.1 17.75 10.6L17.75 10.6 19.3 7.35Q21.45 8.5 23 8.5L23 8.5Q24.35 8.5 24.8 8.05L24.8 8.05 25.45 7.4Q26.1 6.75 26.6 5.15 27.1 3.55 27.4 2.68 27.7 1.8 27.85 1.3L27.85 1.3 19.5-22.8 23.8-22.8 29.7-4.55 29.9-4.55 35.8-22.8 40.1-22.8 30.8 4.05ZM63.6-17.25L63.6-17.25 63.6 0 59.35 0 59.35-17.05Q59.35-18.35 58.32-19.05 57.3-19.75 55.6-19.75L55.6-19.75Q52.05-19.75 48.25-17.2L48.25-17.2 48.25 0 44 0 44-22.8 46.7-22.8 47.95-20.2Q51.8-23.4 56.3-23.4L56.3-23.4Q59.65-23.4 61.62-21.7 63.6-20 63.6-17.25ZM79.74-2.9L79.74-2.9Q83.34-2.9 86.94-5.05L86.94-5.05 88.39-2.05Q84.19 0.6 79.42 0.6 74.64 0.6 71.84-2.43 69.04-5.45 69.04-11.15 69.04-16.85 71.94-20.13 74.84-23.4 79.64-23.4L79.64-23.4Q83.99-23.4 86.49-20.7L86.49-20.7Q87.54-19.6 88.27-17.5 88.99-15.4 88.99-12.55L88.99-12.55 87.44-10.8 73.29-10.8Q73.44-2.9 79.74-2.9ZM84.79-13.95Q84.79-16.75 83.34-18.45 81.89-20.15 79.52-20.15 77.14-20.15 75.49-18.48 73.84-16.8 73.49-13.95L73.49-13.95 84.79-13.95ZM94.24 0L94.24-22.8 96.94-22.8 98.19-18.8 98.39-18.8Q101.14-22.35 105.94-23.1L105.94-23.1 106.39-19.15Q104.04-19 101.84-17.95 99.64-16.9 98.49-15.15L98.49-15.15 98.49 0 94.24 0ZM117.44-6.45L117.44-6.45Q116.29-6.45 115.24-6.6L115.24-6.6Q113.99-4.2 113.99-3.45L113.99-3.45Q113.99-3.1 114.89-2.85L114.89-2.85 120.99-1.5Q125.24-0.55 127.04 0.73 128.84 2 128.84 4.5 128.84 7 127.09 8.7L127.09 8.7Q123.69 12.1 117.09 12.1L117.09 12.1Q113.04 12.1 110.09 10.6 107.14 9.1 107.14 6.3 107.14 3.5 111.14-0.15L111.14-0.15Q109.64-0.7 109.64-1.8 109.64-2.9 112.59-7.25L112.59-7.25Q108.29-9.1 108.29-15L108.29-15Q108.29-18.3 110.61-20.78 112.94-23.25 117.44-23.25L117.44-23.25Q120.04-23.25 121.99-22.5L121.99-22.5 128.99-23.3 128.99-19.95 125.24-19.95Q126.54-17.85 126.54-14.63 126.54-11.4 124.24-8.93 121.94-6.45 117.44-6.45ZM122.54-14.25L122.54-14.25Q122.54-20.45 117.49-20.45L117.49-20.45Q115.49-20.45 114.24-19.4L114.24-19.4Q112.29-17.7 112.29-15.18 112.29-12.65 113.49-10.95 114.69-9.25 117.34-9.25 119.99-9.25 121.26-10.88 122.54-12.5 122.54-14.25ZM111.14 5.65L111.14 5.65Q111.14 7.25 112.89 8.1 114.64 8.95 117.44 8.95 120.24 8.95 122.64 7.83 125.04 6.7 125.04 4.75L125.04 4.75Q125.04 3.75 123.89 3.13 122.74 2.5 119.89 1.9L119.89 1.9 114.04 0.6Q111.14 3.5 111.14 5.65ZM141.44 4.05Q139.79 8.85 138.41 10.48 137.04 12.1 134.34 12.1 131.64 12.1 128.39 10.6L128.39 10.6 129.94 7.35Q132.09 8.5 133.64 8.5L133.64 8.5Q134.99 8.5 135.44 8.05L135.44 8.05 136.09 7.4Q136.74 6.75 137.24 5.15 137.74 3.55 138.04 2.68 138.34 1.8 138.49 1.3L138.49 1.3 130.14-22.8 134.44-22.8 140.34-4.55 140.54-4.55 146.44-22.8 150.74-22.8 141.44 4.05Z" opacity="1" transform="matrix(1,0,0,1,0,0)" fill="white" class="wordmark-text-0" id="SvgjsPath2875"></path></svg></g></svg></g></svg></g></svg></g><g><svg viewBox="0 0 268.874496 268.874496" height="268.874496" width="268.874496"><g><svg viewBox="0 0 268.874496 268.874496" height="268.874496" width="268.874496"><g transform="matrix(1,0,0,1,71.06292153009494,71.08127818164809)"><svg viewBox="0 0 126.74865293981016 126.71193963670386" height="126.71193963670386" width="126.74865293981016"><g><svg xmlns="http://www.w3.org/2000/svg" xmlns:xlink="http://www.w3.org/1999/xlink" version="1.1" x="0" y="0" viewBox="0.45572546217846854 0.468 95.09154368259615 95.064" enable-background="new 0 0 96 96" xml:space="preserve" height="126.71193963670386" width="126.74865293981016" class="icon-dxe-0" data-fill-palette-color="accent" id="SvgjsSvg2874"><path d="M79.188 48C83.836 41.94 87.696 35.94 90.508 30.324 98.24 14.864 95.656 7.408 92.12 3.884 89.851 1.624 86.724 0.468 82.824 0.468 74.02 0.468 61.328 6.568 48 16.8 34.672 6.572 21.98 0.468 13.176 0.468 9.276 0.468 6.148 1.62 3.88 3.884 0.348 7.416-2.236 14.864 5.492 30.324 8.3 35.94 12.164 41.94 16.812 48 12.168 54.061 8.304 60.061 5.492 65.676-2.236 81.136 0.348 88.588 3.88 92.116 6.144 94.376 9.276 95.532 13.176 95.532 21.98 95.532 34.672 89.431 48 79.2 61.328 89.431 74.02 95.532 82.824 95.532 86.728 95.532 89.851 94.38 92.12 92.116 95.652 88.584 98.232 81.136 90.508 65.676 87.704 60.061 83.836 54.061 79.188 48M82.828 8.464C84.523 8.464 85.748 8.828 86.468 9.544 88.156 11.228 88.356 16.752 83.356 26.752 81.001 31.468 77.805 36.496 74.004 41.608A177 177 0 0 0 64.6 31.408 172 172 0 0 0 54.397 21.98C66.752 12.78 77.092 8.464 82.828 8.464M68.936 48A167 167 0 0 1 58.936 58.936 172 172 0 0 1 48 68.977 169 169 0 0 1 37.064 58.936 167 167 0 0 1 27.064 48 167 167 0 0 1 37.064 37.064 170 170 0 0 1 48 27.024 169 169 0 0 1 58.936 37.064 165 165 0 0 1 68.936 48M12.652 26.752C7.652 16.752 7.852 11.228 9.54 9.54 10.252 8.828 11.476 8.464 13.18 8.464 18.912 8.464 29.256 12.78 41.608 21.972A178 178 0 0 0 31.408 31.4 177 177 0 0 0 22.004 41.6C18.196 36.488 15.004 31.46 12.652 26.752M13.176 87.536C11.476 87.536 10.252 87.176 9.536 86.46 7.848 84.772 7.648 79.248 12.648 69.248 15.004 64.536 18.196 59.504 22 54.393A178 178 0 0 0 31.404 64.592 172 172 0 0 0 41.604 74.02C29.252 83.221 18.912 87.536 13.176 87.536M86.468 86.46C85.752 87.176 84.532 87.536 82.828 87.536 77.092 87.536 66.744 83.221 54.4 74.027A174 174 0 0 0 74.003 54.4C77.816 59.511 81.003 64.544 83.355 69.259 88.352 79.252 88.156 84.771 86.468 86.46" fill="black"></path><path d="M48 39.132C43.112 39.132 39.132 43.108 39.132 48S43.112 56.868 48 56.868C52.889 56.868 56.863 52.892 56.863 48S52.893 39.132 48 39.132" fill="black"></path></svg></g></svg></g><g id="SvgjsG2873"><path d="M9.455 86.464l2.319 1.939c-1.104 1.257-1.866 2.533-2.288 3.829v0c-0.811 2.493-0.456 3.987 1.065 4.482v0c1.316 0.428 3.133-0.82 5.452-3.743v0c0.865-1.086 1.954-1.993 3.265-2.722 1.321-0.733 2.669-0.876 4.044-0.428v0c1.977 0.643 3.237 1.77 3.781 3.38 0.539 1.601 0.436 3.549-0.311 5.844-0.747 2.294-2.106 4.327-4.079 6.098v0l-2.319-1.939c1.621-1.476 2.805-3.361 3.551-5.656v0c0.316-0.972 0.365-1.83 0.146-2.574-0.221-0.737-0.688-1.222-1.402-1.454-0.721-0.235-1.451-0.092-2.19 0.428-0.742 0.526-1.469 1.211-2.182 2.054-0.722 0.847-1.479 1.68-2.271 2.496-0.788 0.826-1.727 1.442-2.817 1.848-1.083 0.408-2.213 0.42-3.391 0.037v0c-1.832-0.596-3.04-1.68-3.625-3.252-0.587-1.566-0.568-3.311 0.059-5.235 0.626-1.924 1.691-3.735 3.193-5.432z" fill="black"></path><path d="M52.683 61.186c1.494 2.677 2.327 4.653 2.499 5.929 0.177 1.271-0.278 2.511-1.365 3.722-1.091 1.216-2.628 2.252-4.611 3.107v0l-1.248-3.012c1.381-0.498 2.385-1.096 3.012-1.795v0c0.543-0.605 0.805-1.1 0.784-1.483v0l-0.052-0.831c-0.025-0.555-0.297-1.267-0.817-2.135-0.515-0.873-0.909-1.554-1.181-2.041-0.273-0.488-0.49-0.865-0.652-1.132v0l-21.289-8.947 2.599-2.895 15.862 7.061 0.125-0.14-8.728-15.009 2.598-2.895z" fill="black"></path><path d="M90.271 12.677v0l6.647 14.129-3.483 1.638-6.571-13.968c-0.334-0.711-0.871-1.123-1.608-1.237-0.741-0.12-1.576 0.039-2.508 0.476v0c-1.938 0.912-3.618 2.551-5.04 4.919v0l6.629 14.09-3.482 1.639-8.787-18.678 2.218-1.043 2.022 1.653c1.279-2.738 3.148-4.685 5.608-5.842v0c1.831-0.861 3.503-1.08 5.018-0.655 1.517 0.416 2.63 1.376 3.337 2.879z" fill="black"></path><path d="M138.186 18.555v0c2.169 0.023 4.345-0.601 6.528-1.871v0l1.286 2.725c-2.548 1.573-5.264 2.344-8.15 2.314-2.878-0.03-5.153-0.965-6.823-2.805-1.67-1.846-2.487-4.49-2.452-7.932 0.036-3.435 0.941-6.134 2.714-8.097 1.766-1.956 4.099-2.919 6.998-2.888v0c2.621 0.028 4.678 0.863 6.169 2.505v0c0.633 0.674 1.158 1.646 1.576 2.916 0.425 1.27 0.628 2.767 0.61 4.492v0l-1.414 1.571-12.807-0.135c0.04 4.764 1.962 7.166 5.765 7.206zM142.859 8.602c0.018-1.69-0.406-3.05-1.271-4.082-0.865-1.038-2.014-1.565-3.447-1.579-1.432-0.015-2.651 0.48-3.656 1.484-1.005 0.998-1.624 2.354-1.857 4.069v0z" fill="black"></path><path d="M177.844 29.495l8.224-18.932 2.248 0.977-0.409 3.768 0.173 0.075c2.371-1.305 4.976-1.587 7.816-0.846v0l-1.053 3.443c-1.337-0.482-2.741-0.698-4.211-0.646-1.47 0.051-2.735 0.423-3.793 1.115v0l-5.465 12.58z" fill="black"></path><path d="M221.647 53.069v0c-0.477-0.506-0.899-1.02-1.268-1.543v0c-1.568 0.445-2.518 0.826-2.852 1.141v0c-0.152 0.143-0.097 0.464 0.163 0.964v0l2.896 4.852c1.345 2.258 2.108 4.047 2.291 5.365 0.182 1.319-0.276 2.496-1.373 3.531-1.098 1.035-2.379 1.521-3.843 1.457v0c-2.904-0.091-5.721-1.583-8.449-4.477v0c-1.679-1.781-2.8-3.629-3.363-5.545-0.563-1.915-0.23-3.452 1-4.612 1.23-1.159 3.474-1.616 6.733-1.372v0c-0.377-0.887-0.325-1.557 0.155-2.01 0.486-0.458 2.293-0.938 5.422-1.44v0c-0.964-2.655-0.151-5.204 2.439-7.646v0c1.447-1.364 3.196-2.048 5.248-2.05 2.046-0.008 4.002 0.977 5.867 2.955v0c1.078 1.144 1.855 2.298 2.332 3.463v0l4.866 4.113-2.208 2.082-2.325-2.467c-0.382 1.44-1.281 2.827-2.699 4.163-1.417 1.335-3.144 2.007-5.18 2.016-2.037 0.018-3.988-0.962-5.852-2.94zM229.954 51.588v0c2.722-2.566 3.037-4.959 0.943-7.18v0c-0.825-0.875-1.728-1.372-2.708-1.49v0c-1.555-0.149-2.886 0.298-3.994 1.343-1.108 1.044-1.789 2.183-2.042 3.415-0.248 1.227 0.177 2.423 1.274 3.586 1.097 1.164 2.267 1.69 3.509 1.58 1.243-0.111 2.249-0.529 3.018-1.254zM209.764 56.428v0c-0.703 0.663-0.88 1.555-0.529 2.678 0.35 1.122 1.105 2.298 2.264 3.527 1.159 1.23 2.482 2.137 3.97 2.722 1.493 0.59 2.667 0.482 3.522-0.323v0c0.44-0.415 0.558-1.004 0.354-1.768-0.204-0.764-0.763-1.894-1.677-3.392v0l-2.777-4.664c-2.477-0.073-4.186 0.334-5.127 1.22z" fill="black"></path><path d="M238.901 99.975c-3.065-0.007-5.196-0.247-6.394-0.721-1.195-0.467-2.054-1.471-2.579-3.011-0.527-1.547-0.678-3.394-0.454-5.542v0l3.238 0.385c-0.241 1.448-0.211 2.617 0.092 3.505v0c0.262 0.77 0.565 1.24 0.909 1.41v0l0.751 0.361c0.496 0.25 1.25 0.36 2.262 0.332 1.014-0.022 1.8-0.032 2.358-0.032 0.559 0.001 0.994-0.004 1.306-0.015v0l18.217-14.191 1.254 3.682-13.917 10.381 0.06 0.177 17.361-0.27 1.254 3.683z" fill="black"></path><path d="M22.986 176.372l-2.038-0.176c0.129-1.129 0.058-2.136-0.211-3.021v0c-0.518-1.703-1.3-2.395-2.344-2.077v0c-0.898 0.273-1.421 1.672-1.569 4.195v0c-0.062 0.942-0.317 1.87-0.765 2.785-0.446 0.921-1.139 1.524-2.077 1.809v0c-1.35 0.411-2.489 0.275-3.417-0.409-0.919-0.68-1.617-1.801-2.093-3.365-0.478-1.57-0.515-3.23-0.11-4.981v0l2.051 0.182c-0.33 1.445-0.257 2.953 0.221 4.523v0c0.203 0.665 0.506 1.161 0.911 1.489 0.412 0.325 0.864 0.413 1.356 0.263 0.486-0.148 0.833-0.512 1.041-1.091 0.209-0.58 0.348-1.244 0.419-1.992 0.077-0.75 0.174-1.507 0.29-2.269 0.123-0.764 0.406-1.472 0.848-2.122 0.444-0.644 1.068-1.088 1.872-1.334v0c1.251-0.381 2.345-0.249 3.283 0.397 0.938 0.645 1.606 1.623 2.005 2.933 0.399 1.31 0.508 2.731 0.327 4.261z" fill="black"></path><path d="M33.886 225.498c-1.925 0.789-3.324 1.192-4.197 1.208-0.868 0.011-1.666-0.399-2.394-1.231-0.728-0.832-1.3-1.949-1.715-3.351v0l2.124-0.598c0.227 0.966 0.551 1.69 0.972 2.171v0c0.362 0.413 0.673 0.631 0.933 0.653v0l0.559 0.037c0.378 0.02 0.882-0.107 1.511-0.38 0.625-0.279 1.114-0.49 1.468-0.635 0.345-0.145 0.613-0.26 0.807-0.345v0l7.76-13.604 1.738 1.986-6.042 10.102 0.082 0.094 10.812-4.657 1.738 1.985z" fill="black"></path><path d="M90.48 249.971v0l-4.503 9.581-2.36-1.11 4.455-9.477c0.225-0.478 0.206-0.937-0.057-1.375-0.253-0.442-0.695-0.811-1.324-1.106v0c-1.315-0.618-2.899-0.787-4.752-0.505v0l-4.495 9.562-2.36-1.11 5.955-12.667 1.5 0.705 0.011 1.769c1.988-0.518 3.815-0.385 5.482 0.399v0c1.24 0.583 2.078 1.365 2.516 2.346 0.434 0.972 0.412 1.968-0.068 2.988z" fill="black"></path><path d="M137.07 266.724v0c1.474-0.01 2.942-0.459 4.403-1.345v0l0.91 1.829c-1.71 1.097-3.545 1.652-5.506 1.666-1.954 0.014-3.505-0.594-4.654-1.823-1.156-1.229-1.742-3.009-1.759-5.338-0.017-2.336 0.561-4.18 1.733-5.53 1.179-1.35 2.753-2.033 4.721-2.047v0c1.78-0.013 3.185 0.53 4.215 1.629v0c0.434 0.449 0.801 1.103 1.099 1.963 0.305 0.853 0.462 1.864 0.47 3.032v0l-0.942 1.081-8.687 0.062c0.086 3.233 1.418 4.84 3.997 4.821zM140.12 259.923c-0.008-1.147-0.31-2.066-0.907-2.758-0.603-0.691-1.391-1.033-2.364-1.026-0.966 0.007-1.788 0.353-2.465 1.04-0.67 0.693-1.07 1.624-1.2 2.793v0z" fill="black"></path><path d="M186.56 257.861l-5.696-12.786 1.515-0.674 1.693 1.929 0.114-0.051c0.438-1.786 1.493-3.219 3.166-4.299v0l1.237 2.109c-0.854 0.441-1.606 1.043-2.257 1.805-0.644 0.759-1.036 1.562-1.176 2.408v0l3.786 8.498z" fill="black"></path><path d="M228.97 222.565v0c-0.317 0.35-0.644 0.665-0.979 0.943v0c0.387 1.044 0.693 1.669 0.92 1.874v0c0.108 0.098 0.322 0.043 0.642-0.165v0l3.131-2.216c1.46-1.032 2.631-1.647 3.512-1.843 0.881-0.196 1.701 0.049 2.459 0.735 0.758 0.686 1.154 1.528 1.188 2.525v0c0.093 1.969-0.766 3.954-2.577 5.954v0c-1.115 1.232-2.304 2.088-3.564 2.57-1.266 0.486-2.324 0.344-3.174-0.426-0.85-0.77-1.279-2.265-1.286-4.485v0c-0.58 0.309-1.038 0.312-1.373 0.009-0.335-0.303-0.756-1.501-1.264-3.592v0c-1.743 0.795-3.508 0.383-5.297-1.236v0c-1-0.905-1.557-2.052-1.669-3.44-0.113-1.388 0.449-2.764 1.685-4.13v0c0.714-0.789 1.45-1.374 2.209-1.756v0l2.521-3.515 1.531 1.386-1.54 1.701c0.989 0.182 1.973 0.717 2.952 1.604 0.979 0.887 1.53 2.019 1.653 3.396 0.113 1.378-0.447 2.747-1.679 4.107zM227.522 217.033v0c-1.881-1.703-3.517-1.787-4.908-0.251v0c-0.546 0.603-0.832 1.24-0.858 1.91v0c-0.021 1.059 0.352 1.937 1.12 2.633 0.763 0.691 1.568 1.086 2.414 1.187 0.847 0.101 1.634-0.251 2.363-1.055 0.728-0.804 1.022-1.621 0.882-2.451-0.145-0.835-0.483-1.492-1.013-1.973zM231.886 230.425v0c0.485 0.439 1.096 0.509 1.834 0.212 0.738-0.298 1.493-0.872 2.263-1.722 0.765-0.845 1.309-1.788 1.632-2.828 0.313-1.039 0.175-1.825-0.412-2.357v0c-0.304-0.275-0.71-0.324-1.219-0.147-0.503 0.173-1.237 0.61-2.202 1.313v0l-3.01 2.129c0.088 1.674 0.459 2.808 1.114 3.4z" fill="black"></path><path d="M262.248 176.981c1.675 1.234 2.746 2.22 3.214 2.957 0.461 0.735 0.526 1.631 0.194 2.686-0.332 1.055-0.989 2.124-1.971 3.206v0l-1.616-1.503c0.707-0.696 1.157-1.349 1.349-1.959v0c0.165-0.524 0.189-0.903 0.073-1.136v0l-0.259-0.497c-0.179-0.333-0.55-0.698-1.11-1.093-0.563-0.388-0.998-0.697-1.306-0.925-0.303-0.219-0.541-0.389-0.714-0.509v0l-15.655 0.444 0.792-2.517 11.772-0.091 0.037-0.119-9.599-6.814 0.792-2.517z" fill="black"></path><path d="M1.739 136.089c0-4.469 3.623-8.092 8.092-8.092 4.469 0 8.092 3.623 8.092 8.092 0 4.469-3.623 8.092-8.092 8.092-4.469 0-8.092-3.623-8.092-8.092z" fill="black"></path><path d="M250.951 136.089c0-4.469 3.623-8.092 8.092-8.092 4.469 0 8.092 3.623 8.092 8.092 0 4.469-3.623 8.092-8.092 8.092-4.469 0-8.092-3.623-8.092-8.092z" fill="black"></path></g><g id="SvgjsG2872"></g></svg></g></svg></g></svg></g><defs><mask></mask></defs></svg><rect width="395.52" height="147.72242918342627" fill="black" stroke="none" visibility="hidden"></rect></g></mask><linearGradient x1="0.054" x2="0.941" y1="0.5" y2="0.5" id="bc87f3b5-c266-418f-bf95-28c992a755d2"><stop stop-color="#9c7945" offset="0"></stop><stop stop-color="#faf3aa" offset="0.498"></stop><stop stop-color="#9c7945" offset="1"></stop></linearGradient><rect width="395.52" height="147.72242918342627" fill="url(#bc87f3b5-c266-418f-bf95-28c992a755d2)" mask="url(#328024d1-40b9-4c73-8235-3ff24ff87db6)" data-fill-palette-color="primary"></rect><mask id="5c52d692-1d50-45ff-81ac-3753f4146d49"><g id="SvgjsG2905"><svg viewBox="0 0 395.52 147.72242918342627" height="147.72242918342627" width="395.52"><g><svg viewBox="0 0 719.8990786014735 268.874496" height="147.72242918342627" width="395.52"><g transform="matrix(1,0,0,1,324.37907860147357,87.4146090180844)"><svg viewBox="0 0 395.52 94.04527796383121" height="94.04527796383121" width="395.52"><g id="SvgjsG2904"><svg viewBox="0 0 395.52 94.04527796383121" height="94.04527796383121" width="395.52" id="SvgjsSvg2903"><g><svg viewBox="0 0 395.52 94.04527796383121" height="94.04527796383121" width="395.52"><g transform="matrix(1,0,0,1,0,0)"><svg width="395.52" viewBox="1.45 -23.4 149.29000000000002 35.5" height="94.04527796383121" data-palette-color="url(#bc87f3b5-c266-418f-bf95-28c992a755d2)"></svg></g></svg></g></svg></g></svg></g><g><svg viewBox="0 0 268.874496 268.874496" height="268.874496" width="268.874496"><g><svg viewBox="0 0 268.874496 268.874496" height="268.874496" width="268.874496"><g transform="matrix(1,0,0,1,71.06292153009494,71.08127818164809)"><svg viewBox="0 0 126.74865293981016 126.71193963670386" height="126.71193963670386" width="126.74865293981016"><g><svg xmlns="http://www.w3.org/2000/svg" xmlns:xlink="http://www.w3.org/1999/xlink" version="1.1" x="0" y="0" viewBox="0.45572546217846854 0.468 95.09154368259615 95.064" enable-background="new 0 0 96 96" xml:space="preserve" height="126.71193963670386" width="126.74865293981016" class="icon-dxe-0" data-fill-palette-color="accent" id="SvgjsSvg2902"><path d="M79.188 48C83.836 41.94 87.696 35.94 90.508 30.324 98.24 14.864 95.656 7.408 92.12 3.884 89.851 1.624 86.724 0.468 82.824 0.468 74.02 0.468 61.328 6.568 48 16.8 34.672 6.572 21.98 0.468 13.176 0.468 9.276 0.468 6.148 1.62 3.88 3.884 0.348 7.416-2.236 14.864 5.492 30.324 8.3 35.94 12.164 41.94 16.812 48 12.168 54.061 8.304 60.061 5.492 65.676-2.236 81.136 0.348 88.588 3.88 92.116 6.144 94.376 9.276 95.532 13.176 95.532 21.98 95.532 34.672 89.431 48 79.2 61.328 89.431 74.02 95.532 82.824 95.532 86.728 95.532 89.851 94.38 92.12 92.116 95.652 88.584 98.232 81.136 90.508 65.676 87.704 60.061 83.836 54.061 79.188 48M82.828 8.464C84.523 8.464 85.748 8.828 86.468 9.544 88.156 11.228 88.356 16.752 83.356 26.752 81.001 31.468 77.805 36.496 74.004 41.608A177 177 0 0 0 64.6 31.408 172 172 0 0 0 54.397 21.98C66.752 12.78 77.092 8.464 82.828 8.464M68.936 48A167 167 0 0 1 58.936 58.936 172 172 0 0 1 48 68.977 169 169 0 0 1 37.064 58.936 167 167 0 0 1 27.064 48 167 167 0 0 1 37.064 37.064 170 170 0 0 1 48 27.024 169 169 0 0 1 58.936 37.064 165 165 0 0 1 68.936 48M12.652 26.752C7.652 16.752 7.852 11.228 9.54 9.54 10.252 8.828 11.476 8.464 13.18 8.464 18.912 8.464 29.256 12.78 41.608 21.972A178 178 0 0 0 31.408 31.4 177 177 0 0 0 22.004 41.6C18.196 36.488 15.004 31.46 12.652 26.752M13.176 87.536C11.476 87.536 10.252 87.176 9.536 86.46 7.848 84.772 7.648 79.248 12.648 69.248 15.004 64.536 18.196 59.504 22 54.393A178 178 0 0 0 31.404 64.592 172 172 0 0 0 41.604 74.02C29.252 83.221 18.912 87.536 13.176 87.536M86.468 86.46C85.752 87.176 84.532 87.536 82.828 87.536 77.092 87.536 66.744 83.221 54.4 74.027A174 174 0 0 0 74.003 54.4C77.816 59.511 81.003 64.544 83.355 69.259 88.352 79.252 88.156 84.771 86.468 86.46" fill="white"></path><path d="M48 39.132C43.112 39.132 39.132 43.108 39.132 48S43.112 56.868 48 56.868C52.889 56.868 56.863 52.892 56.863 48S52.893 39.132 48 39.132" fill="white"></path></svg></g></svg></g><g id="SvgjsG2901"><path d="M9.455 86.464l2.319 1.939c-1.104 1.257-1.866 2.533-2.288 3.829v0c-0.811 2.493-0.456 3.987 1.065 4.482v0c1.316 0.428 3.133-0.82 5.452-3.743v0c0.865-1.086 1.954-1.993 3.265-2.722 1.321-0.733 2.669-0.876 4.044-0.428v0c1.977 0.643 3.237 1.77 3.781 3.38 0.539 1.601 0.436 3.549-0.311 5.844-0.747 2.294-2.106 4.327-4.079 6.098v0l-2.319-1.939c1.621-1.476 2.805-3.361 3.551-5.656v0c0.316-0.972 0.365-1.83 0.146-2.574-0.221-0.737-0.688-1.222-1.402-1.454-0.721-0.235-1.451-0.092-2.19 0.428-0.742 0.526-1.469 1.211-2.182 2.054-0.722 0.847-1.479 1.68-2.271 2.496-0.788 0.826-1.727 1.442-2.817 1.848-1.083 0.408-2.213 0.42-3.391 0.037v0c-1.832-0.596-3.04-1.68-3.625-3.252-0.587-1.566-0.568-3.311 0.059-5.235 0.626-1.924 1.691-3.735 3.193-5.432z" fill="white"></path><path d="M52.683 61.186c1.494 2.677 2.327 4.653 2.499 5.929 0.177 1.271-0.278 2.511-1.365 3.722-1.091 1.216-2.628 2.252-4.611 3.107v0l-1.248-3.012c1.381-0.498 2.385-1.096 3.012-1.795v0c0.543-0.605 0.805-1.1 0.784-1.483v0l-0.052-0.831c-0.025-0.555-0.297-1.267-0.817-2.135-0.515-0.873-0.909-1.554-1.181-2.041-0.273-0.488-0.49-0.865-0.652-1.132v0l-21.289-8.947 2.599-2.895 15.862 7.061 0.125-0.14-8.728-15.009 2.598-2.895z" fill="white"></path><path d="M90.271 12.677v0l6.647 14.129-3.483 1.638-6.571-13.968c-0.334-0.711-0.871-1.123-1.608-1.237-0.741-0.12-1.576 0.039-2.508 0.476v0c-1.938 0.912-3.618 2.551-5.04 4.919v0l6.629 14.09-3.482 1.639-8.787-18.678 2.218-1.043 2.022 1.653c1.279-2.738 3.148-4.685 5.608-5.842v0c1.831-0.861 3.503-1.08 5.018-0.655 1.517 0.416 2.63 1.376 3.337 2.879z" fill="white"></path><path d="M138.186 18.555v0c2.169 0.023 4.345-0.601 6.528-1.871v0l1.286 2.725c-2.548 1.573-5.264 2.344-8.15 2.314-2.878-0.03-5.153-0.965-6.823-2.805-1.67-1.846-2.487-4.49-2.452-7.932 0.036-3.435 0.941-6.134 2.714-8.097 1.766-1.956 4.099-2.919 6.998-2.888v0c2.621 0.028 4.678 0.863 6.169 2.505v0c0.633 0.674 1.158 1.646 1.576 2.916 0.425 1.27 0.628 2.767 0.61 4.492v0l-1.414 1.571-12.807-0.135c0.04 4.764 1.962 7.166 5.765 7.206zM142.859 8.602c0.018-1.69-0.406-3.05-1.271-4.082-0.865-1.038-2.014-1.565-3.447-1.579-1.432-0.015-2.651 0.48-3.656 1.484-1.005 0.998-1.624 2.354-1.857 4.069v0z" fill="white"></path><path d="M177.844 29.495l8.224-18.932 2.248 0.977-0.409 3.768 0.173 0.075c2.371-1.305 4.976-1.587 7.816-0.846v0l-1.053 3.443c-1.337-0.482-2.741-0.698-4.211-0.646-1.47 0.051-2.735 0.423-3.793 1.115v0l-5.465 12.58z" fill="white"></path><path d="M221.647 53.069v0c-0.477-0.506-0.899-1.02-1.268-1.543v0c-1.568 0.445-2.518 0.826-2.852 1.141v0c-0.152 0.143-0.097 0.464 0.163 0.964v0l2.896 4.852c1.345 2.258 2.108 4.047 2.291 5.365 0.182 1.319-0.276 2.496-1.373 3.531-1.098 1.035-2.379 1.521-3.843 1.457v0c-2.904-0.091-5.721-1.583-8.449-4.477v0c-1.679-1.781-2.8-3.629-3.363-5.545-0.563-1.915-0.23-3.452 1-4.612 1.23-1.159 3.474-1.616 6.733-1.372v0c-0.377-0.887-0.325-1.557 0.155-2.01 0.486-0.458 2.293-0.938 5.422-1.44v0c-0.964-2.655-0.151-5.204 2.439-7.646v0c1.447-1.364 3.196-2.048 5.248-2.05 2.046-0.008 4.002 0.977 5.867 2.955v0c1.078 1.144 1.855 2.298 2.332 3.463v0l4.866 4.113-2.208 2.082-2.325-2.467c-0.382 1.44-1.281 2.827-2.699 4.163-1.417 1.335-3.144 2.007-5.18 2.016-2.037 0.018-3.988-0.962-5.852-2.94zM229.954 51.588v0c2.722-2.566 3.037-4.959 0.943-7.18v0c-0.825-0.875-1.728-1.372-2.708-1.49v0c-1.555-0.149-2.886 0.298-3.994 1.343-1.108 1.044-1.789 2.183-2.042 3.415-0.248 1.227 0.177 2.423 1.274 3.586 1.097 1.164 2.267 1.69 3.509 1.58 1.243-0.111 2.249-0.529 3.018-1.254zM209.764 56.428v0c-0.703 0.663-0.88 1.555-0.529 2.678 0.35 1.122 1.105 2.298 2.264 3.527 1.159 1.23 2.482 2.137 3.97 2.722 1.493 0.59 2.667 0.482 3.522-0.323v0c0.44-0.415 0.558-1.004 0.354-1.768-0.204-0.764-0.763-1.894-1.677-3.392v0l-2.777-4.664c-2.477-0.073-4.186 0.334-5.127 1.22z" fill="white"></path><path d="M238.901 99.975c-3.065-0.007-5.196-0.247-6.394-0.721-1.195-0.467-2.054-1.471-2.579-3.011-0.527-1.547-0.678-3.394-0.454-5.542v0l3.238 0.385c-0.241 1.448-0.211 2.617 0.092 3.505v0c0.262 0.77 0.565 1.24 0.909 1.41v0l0.751 0.361c0.496 0.25 1.25 0.36 2.262 0.332 1.014-0.022 1.8-0.032 2.358-0.032 0.559 0.001 0.994-0.004 1.306-0.015v0l18.217-14.191 1.254 3.682-13.917 10.381 0.06 0.177 17.361-0.27 1.254 3.683z" fill="white"></path><path d="M22.986 176.372l-2.038-0.176c0.129-1.129 0.058-2.136-0.211-3.021v0c-0.518-1.703-1.3-2.395-2.344-2.077v0c-0.898 0.273-1.421 1.672-1.569 4.195v0c-0.062 0.942-0.317 1.87-0.765 2.785-0.446 0.921-1.139 1.524-2.077 1.809v0c-1.35 0.411-2.489 0.275-3.417-0.409-0.919-0.68-1.617-1.801-2.093-3.365-0.478-1.57-0.515-3.23-0.11-4.981v0l2.051 0.182c-0.33 1.445-0.257 2.953 0.221 4.523v0c0.203 0.665 0.506 1.161 0.911 1.489 0.412 0.325 0.864 0.413 1.356 0.263 0.486-0.148 0.833-0.512 1.041-1.091 0.209-0.58 0.348-1.244 0.419-1.992 0.077-0.75 0.174-1.507 0.29-2.269 0.123-0.764 0.406-1.472 0.848-2.122 0.444-0.644 1.068-1.088 1.872-1.334v0c1.251-0.381 2.345-0.249 3.283 0.397 0.938 0.645 1.606 1.623 2.005 2.933 0.399 1.31 0.508 2.731 0.327 4.261z" fill="white"></path><path d="M33.886 225.498c-1.925 0.789-3.324 1.192-4.197 1.208-0.868 0.011-1.666-0.399-2.394-1.231-0.728-0.832-1.3-1.949-1.715-3.351v0l2.124-0.598c0.227 0.966 0.551 1.69 0.972 2.171v0c0.362 0.413 0.673 0.631 0.933 0.653v0l0.559 0.037c0.378 0.02 0.882-0.107 1.511-0.38 0.625-0.279 1.114-0.49 1.468-0.635 0.345-0.145 0.613-0.26 0.807-0.345v0l7.76-13.604 1.738 1.986-6.042 10.102 0.082 0.094 10.812-4.657 1.738 1.985z" fill="white"></path><path d="M90.48 249.971v0l-4.503 9.581-2.36-1.11 4.455-9.477c0.225-0.478 0.206-0.937-0.057-1.375-0.253-0.442-0.695-0.811-1.324-1.106v0c-1.315-0.618-2.899-0.787-4.752-0.505v0l-4.495 9.562-2.36-1.11 5.955-12.667 1.5 0.705 0.011 1.769c1.988-0.518 3.815-0.385 5.482 0.399v0c1.24 0.583 2.078 1.365 2.516 2.346 0.434 0.972 0.412 1.968-0.068 2.988z" fill="white"></path><path d="M137.07 266.724v0c1.474-0.01 2.942-0.459 4.403-1.345v0l0.91 1.829c-1.71 1.097-3.545 1.652-5.506 1.666-1.954 0.014-3.505-0.594-4.654-1.823-1.156-1.229-1.742-3.009-1.759-5.338-0.017-2.336 0.561-4.18 1.733-5.53 1.179-1.35 2.753-2.033 4.721-2.047v0c1.78-0.013 3.185 0.53 4.215 1.629v0c0.434 0.449 0.801 1.103 1.099 1.963 0.305 0.853 0.462 1.864 0.47 3.032v0l-0.942 1.081-8.687 0.062c0.086 3.233 1.418 4.84 3.997 4.821zM140.12 259.923c-0.008-1.147-0.31-2.066-0.907-2.758-0.603-0.691-1.391-1.033-2.364-1.026-0.966 0.007-1.788 0.353-2.465 1.04-0.67 0.693-1.07 1.624-1.2 2.793v0z" fill="white"></path><path d="M186.56 257.861l-5.696-12.786 1.515-0.674 1.693 1.929 0.114-0.051c0.438-1.786 1.493-3.219 3.166-4.299v0l1.237 2.109c-0.854 0.441-1.606 1.043-2.257 1.805-0.644 0.759-1.036 1.562-1.176 2.408v0l3.786 8.498z" fill="white"></path><path d="M228.97 222.565v0c-0.317 0.35-0.644 0.665-0.979 0.943v0c0.387 1.044 0.693 1.669 0.92 1.874v0c0.108 0.098 0.322 0.043 0.642-0.165v0l3.131-2.216c1.46-1.032 2.631-1.647 3.512-1.843 0.881-0.196 1.701 0.049 2.459 0.735 0.758 0.686 1.154 1.528 1.188 2.525v0c0.093 1.969-0.766 3.954-2.577 5.954v0c-1.115 1.232-2.304 2.088-3.564 2.57-1.266 0.486-2.324 0.344-3.174-0.426-0.85-0.77-1.279-2.265-1.286-4.485v0c-0.58 0.309-1.038 0.312-1.373 0.009-0.335-0.303-0.756-1.501-1.264-3.592v0c-1.743 0.795-3.508 0.383-5.297-1.236v0c-1-0.905-1.557-2.052-1.669-3.44-0.113-1.388 0.449-2.764 1.685-4.13v0c0.714-0.789 1.45-1.374 2.209-1.756v0l2.521-3.515 1.531 1.386-1.54 1.701c0.989 0.182 1.973 0.717 2.952 1.604 0.979 0.887 1.53 2.019 1.653 3.396 0.113 1.378-0.447 2.747-1.679 4.107zM227.522 217.033v0c-1.881-1.703-3.517-1.787-4.908-0.251v0c-0.546 0.603-0.832 1.24-0.858 1.91v0c-0.021 1.059 0.352 1.937 1.12 2.633 0.763 0.691 1.568 1.086 2.414 1.187 0.847 0.101 1.634-0.251 2.363-1.055 0.728-0.804 1.022-1.621 0.882-2.451-0.145-0.835-0.483-1.492-1.013-1.973zM231.886 230.425v0c0.485 0.439 1.096 0.509 1.834 0.212 0.738-0.298 1.493-0.872 2.263-1.722 0.765-0.845 1.309-1.788 1.632-2.828 0.313-1.039 0.175-1.825-0.412-2.357v0c-0.304-0.275-0.71-0.324-1.219-0.147-0.503 0.173-1.237 0.61-2.202 1.313v0l-3.01 2.129c0.088 1.674 0.459 2.808 1.114 3.4z" fill="white"></path><path d="M262.248 176.981c1.675 1.234 2.746 2.22 3.214 2.957 0.461 0.735 0.526 1.631 0.194 2.686-0.332 1.055-0.989 2.124-1.971 3.206v0l-1.616-1.503c0.707-0.696 1.157-1.349 1.349-1.959v0c0.165-0.524 0.189-0.903 0.073-1.136v0l-0.259-0.497c-0.179-0.333-0.55-0.698-1.11-1.093-0.563-0.388-0.998-0.697-1.306-0.925-0.303-0.219-0.541-0.389-0.714-0.509v0l-15.655 0.444 0.792-2.517 11.772-0.091 0.037-0.119-9.599-6.814 0.792-2.517z" fill="white"></path><path d="M1.739 136.089c0-4.469 3.623-8.092 8.092-8.092 4.469 0 8.092 3.623 8.092 8.092 0 4.469-3.623 8.092-8.092 8.092-4.469 0-8.092-3.623-8.092-8.092z" fill="white"></path><path d="M250.951 136.089c0-4.469 3.623-8.092 8.092-8.092 4.469 0 8.092 3.623 8.092 8.092 0 4.469-3.623 8.092-8.092 8.092-4.469 0-8.092-3.623-8.092-8.092z" fill="white"></path></g><g id="SvgjsG2900"></g></svg></g></svg></g></svg></g><defs><mask></mask></defs><mask><g id="SvgjsG2899"><svg viewBox="0 0 395.52 147.72242918342627" height="147.72242918342627" width="395.52"><g><svg viewBox="0 0 719.8990786014735 268.874496" height="147.72242918342627" width="395.52"><g transform="matrix(1,0,0,1,324.37907860147357,87.4146090180844)"><svg viewBox="0 0 395.52 94.04527796383121" height="94.04527796383121" width="395.52"><g id="SvgjsG2898"><svg viewBox="0 0 395.52 94.04527796383121" height="94.04527796383121" width="395.52" id="SvgjsSvg2897"><g><svg viewBox="0 0 395.52 94.04527796383121" height="94.04527796383121" width="395.52"><g transform="matrix(1,0,0,1,0,0)"><svg width="395.52" viewBox="1.45 -23.4 149.29000000000002 35.5" height="94.04527796383121" data-palette-color="url(#bc87f3b5-c266-418f-bf95-28c992a755d2)"><path d="M16.55-21.9L15.3-18.8Q12.75-19.9 10.5-19.9L10.5-19.9Q6.15-19.9 6.15-17.25L6.15-17.25Q6.15-14.95 11.95-12.8L11.95-12.8Q14.1-12 15.93-10.3 17.75-8.6 17.75-6.2L17.75-6.2Q17.75-2.75 15.5-1.07 13.25 0.6 9.25 0.6 5.25 0.6 1.45-1.6L1.45-1.6 2.7-4.7Q5.85-2.9 9.85-2.9L9.85-2.9Q11.55-2.9 12.6-3.63 13.65-4.35 13.65-5.6 13.65-6.85 12.45-7.75 11.25-8.65 9.55-9.35 7.85-10.05 6.15-10.88 4.45-11.7 3.25-13.2 2.05-14.7 2.05-16.75L2.05-16.75Q2.05-19.95 4.23-21.68 6.4-23.4 9.75-23.4 13.1-23.4 16.55-21.9L16.55-21.9ZM30.8 4.05Q29.15 8.85 27.77 10.48 26.4 12.1 23.7 12.1 21 12.1 17.75 10.6L17.75 10.6 19.3 7.35Q21.45 8.5 23 8.5L23 8.5Q24.35 8.5 24.8 8.05L24.8 8.05 25.45 7.4Q26.1 6.75 26.6 5.15 27.1 3.55 27.4 2.68 27.7 1.8 27.85 1.3L27.85 1.3 19.5-22.8 23.8-22.8 29.7-4.55 29.9-4.55 35.8-22.8 40.1-22.8 30.8 4.05ZM63.6-17.25L63.6-17.25 63.6 0 59.35 0 59.35-17.05Q59.35-18.35 58.32-19.05 57.3-19.75 55.6-19.75L55.6-19.75Q52.05-19.75 48.25-17.2L48.25-17.2 48.25 0 44 0 44-22.8 46.7-22.8 47.95-20.2Q51.8-23.4 56.3-23.4L56.3-23.4Q59.65-23.4 61.62-21.7 63.6-20 63.6-17.25ZM79.74-2.9L79.74-2.9Q83.34-2.9 86.94-5.05L86.94-5.05 88.39-2.05Q84.19 0.6 79.42 0.6 74.64 0.6 71.84-2.43 69.04-5.45 69.04-11.15 69.04-16.85 71.94-20.13 74.84-23.4 79.64-23.4L79.64-23.4Q83.99-23.4 86.49-20.7L86.49-20.7Q87.54-19.6 88.27-17.5 88.99-15.4 88.99-12.55L88.99-12.55 87.44-10.8 73.29-10.8Q73.44-2.9 79.74-2.9ZM84.79-13.95Q84.79-16.75 83.34-18.45 81.89-20.15 79.52-20.15 77.14-20.15 75.49-18.48 73.84-16.8 73.49-13.95L73.49-13.95 84.79-13.95ZM94.24 0L94.24-22.8 96.94-22.8 98.19-18.8 98.39-18.8Q101.14-22.35 105.94-23.1L105.94-23.1 106.39-19.15Q104.04-19 101.84-17.95 99.64-16.9 98.49-15.15L98.49-15.15 98.49 0 94.24 0ZM117.44-6.45L117.44-6.45Q116.29-6.45 115.24-6.6L115.24-6.6Q113.99-4.2 113.99-3.45L113.99-3.45Q113.99-3.1 114.89-2.85L114.89-2.85 120.99-1.5Q125.24-0.55 127.04 0.73 128.84 2 128.84 4.5 128.84 7 127.09 8.7L127.09 8.7Q123.69 12.1 117.09 12.1L117.09 12.1Q113.04 12.1 110.09 10.6 107.14 9.1 107.14 6.3 107.14 3.5 111.14-0.15L111.14-0.15Q109.64-0.7 109.64-1.8 109.64-2.9 112.59-7.25L112.59-7.25Q108.29-9.1 108.29-15L108.29-15Q108.29-18.3 110.61-20.78 112.94-23.25 117.44-23.25L117.44-23.25Q120.04-23.25 121.99-22.5L121.99-22.5 128.99-23.3 128.99-19.95 125.24-19.95Q126.54-17.85 126.54-14.63 126.54-11.4 124.24-8.93 121.94-6.45 117.44-6.45ZM122.54-14.25L122.54-14.25Q122.54-20.45 117.49-20.45L117.49-20.45Q115.49-20.45 114.24-19.4L114.24-19.4Q112.29-17.7 112.29-15.18 112.29-12.65 113.49-10.95 114.69-9.25 117.34-9.25 119.99-9.25 121.26-10.88 122.54-12.5 122.54-14.25ZM111.14 5.65L111.14 5.65Q111.14 7.25 112.89 8.1 114.64 8.95 117.44 8.95 120.24 8.95 122.64 7.83 125.04 6.7 125.04 4.75L125.04 4.75Q125.04 3.75 123.89 3.13 122.74 2.5 119.89 1.9L119.89 1.9 114.04 0.6Q111.14 3.5 111.14 5.65ZM141.44 4.05Q139.79 8.85 138.41 10.48 137.04 12.1 134.34 12.1 131.64 12.1 128.39 10.6L128.39 10.6 129.94 7.35Q132.09 8.5 133.64 8.5L133.64 8.5Q134.99 8.5 135.44 8.05L135.44 8.05 136.09 7.4Q136.74 6.75 137.24 5.15 137.74 3.55 138.04 2.68 138.34 1.8 138.49 1.3L138.49 1.3 130.14-22.8 134.44-22.8 140.34-4.55 140.54-4.55 146.44-22.8 150.74-22.8 141.44 4.05Z" opacity="1" transform="matrix(1,0,0,1,0,0)" fill="black" class="wordmark-text-0" id="SvgjsPath2896"></path></svg></g></svg></g></svg></g></svg></g><g><svg viewBox="0 0 268.874496 268.874496" height="268.874496" width="268.874496"><g><svg viewBox="0 0 268.874496 268.874496" height="268.874496" width="268.874496"><g transform="matrix(1,0,0,1,71.06292153009494,71.08127818164809)"><svg viewBox="0 0 126.74865293981016 126.71193963670386" height="126.71193963670386" width="126.74865293981016"><g><svg xmlns="http://www.w3.org/2000/svg" xmlns:xlink="http://www.w3.org/1999/xlink" version="1.1" x="0" y="0" viewBox="0.45572546217846854 0.468 95.09154368259615 95.064" enable-background="new 0 0 96 96" xml:space="preserve" height="126.71193963670386" width="126.74865293981016" class="icon-dxe-0" data-fill-palette-color="accent" id="SvgjsSvg2895"><path d="M79.188 48C83.836 41.94 87.696 35.94 90.508 30.324 98.24 14.864 95.656 7.408 92.12 3.884 89.851 1.624 86.724 0.468 82.824 0.468 74.02 0.468 61.328 6.568 48 16.8 34.672 6.572 21.98 0.468 13.176 0.468 9.276 0.468 6.148 1.62 3.88 3.884 0.348 7.416-2.236 14.864 5.492 30.324 8.3 35.94 12.164 41.94 16.812 48 12.168 54.061 8.304 60.061 5.492 65.676-2.236 81.136 0.348 88.588 3.88 92.116 6.144 94.376 9.276 95.532 13.176 95.532 21.98 95.532 34.672 89.431 48 79.2 61.328 89.431 74.02 95.532 82.824 95.532 86.728 95.532 89.851 94.38 92.12 92.116 95.652 88.584 98.232 81.136 90.508 65.676 87.704 60.061 83.836 54.061 79.188 48M82.828 8.464C84.523 8.464 85.748 8.828 86.468 9.544 88.156 11.228 88.356 16.752 83.356 26.752 81.001 31.468 77.805 36.496 74.004 41.608A177 177 0 0 0 64.6 31.408 172 172 0 0 0 54.397 21.98C66.752 12.78 77.092 8.464 82.828 8.464M68.936 48A167 167 0 0 1 58.936 58.936 172 172 0 0 1 48 68.977 169 169 0 0 1 37.064 58.936 167 167 0 0 1 27.064 48 167 167 0 0 1 37.064 37.064 170 170 0 0 1 48 27.024 169 169 0 0 1 58.936 37.064 165 165 0 0 1 68.936 48M12.652 26.752C7.652 16.752 7.852 11.228 9.54 9.54 10.252 8.828 11.476 8.464 13.18 8.464 18.912 8.464 29.256 12.78 41.608 21.972A178 178 0 0 0 31.408 31.4 177 177 0 0 0 22.004 41.6C18.196 36.488 15.004 31.46 12.652 26.752M13.176 87.536C11.476 87.536 10.252 87.176 9.536 86.46 7.848 84.772 7.648 79.248 12.648 69.248 15.004 64.536 18.196 59.504 22 54.393A178 178 0 0 0 31.404 64.592 172 172 0 0 0 41.604 74.02C29.252 83.221 18.912 87.536 13.176 87.536M86.468 86.46C85.752 87.176 84.532 87.536 82.828 87.536 77.092 87.536 66.744 83.221 54.4 74.027A174 174 0 0 0 74.003 54.4C77.816 59.511 81.003 64.544 83.355 69.259 88.352 79.252 88.156 84.771 86.468 86.46" fill="black"></path><path d="M48 39.132C43.112 39.132 39.132 43.108 39.132 48S43.112 56.868 48 56.868C52.889 56.868 56.863 52.892 56.863 48S52.893 39.132 48 39.132" fill="black"></path></svg></g></svg></g><g id="SvgjsG2894"><path d="M9.455 86.464l2.319 1.939c-1.104 1.257-1.866 2.533-2.288 3.829v0c-0.811 2.493-0.456 3.987 1.065 4.482v0c1.316 0.428 3.133-0.82 5.452-3.743v0c0.865-1.086 1.954-1.993 3.265-2.722 1.321-0.733 2.669-0.876 4.044-0.428v0c1.977 0.643 3.237 1.77 3.781 3.38 0.539 1.601 0.436 3.549-0.311 5.844-0.747 2.294-2.106 4.327-4.079 6.098v0l-2.319-1.939c1.621-1.476 2.805-3.361 3.551-5.656v0c0.316-0.972 0.365-1.83 0.146-2.574-0.221-0.737-0.688-1.222-1.402-1.454-0.721-0.235-1.451-0.092-2.19 0.428-0.742 0.526-1.469 1.211-2.182 2.054-0.722 0.847-1.479 1.68-2.271 2.496-0.788 0.826-1.727 1.442-2.817 1.848-1.083 0.408-2.213 0.42-3.391 0.037v0c-1.832-0.596-3.04-1.68-3.625-3.252-0.587-1.566-0.568-3.311 0.059-5.235 0.626-1.924 1.691-3.735 3.193-5.432z" fill="black"></path><path d="M52.683 61.186c1.494 2.677 2.327 4.653 2.499 5.929 0.177 1.271-0.278 2.511-1.365 3.722-1.091 1.216-2.628 2.252-4.611 3.107v0l-1.248-3.012c1.381-0.498 2.385-1.096 3.012-1.795v0c0.543-0.605 0.805-1.1 0.784-1.483v0l-0.052-0.831c-0.025-0.555-0.297-1.267-0.817-2.135-0.515-0.873-0.909-1.554-1.181-2.041-0.273-0.488-0.49-0.865-0.652-1.132v0l-21.289-8.947 2.599-2.895 15.862 7.061 0.125-0.14-8.728-15.009 2.598-2.895z" fill="black"></path><path d="M90.271 12.677v0l6.647 14.129-3.483 1.638-6.571-13.968c-0.334-0.711-0.871-1.123-1.608-1.237-0.741-0.12-1.576 0.039-2.508 0.476v0c-1.938 0.912-3.618 2.551-5.04 4.919v0l6.629 14.09-3.482 1.639-8.787-18.678 2.218-1.043 2.022 1.653c1.279-2.738 3.148-4.685 5.608-5.842v0c1.831-0.861 3.503-1.08 5.018-0.655 1.517 0.416 2.63 1.376 3.337 2.879z" fill="black"></path><path d="M138.186 18.555v0c2.169 0.023 4.345-0.601 6.528-1.871v0l1.286 2.725c-2.548 1.573-5.264 2.344-8.15 2.314-2.878-0.03-5.153-0.965-6.823-2.805-1.67-1.846-2.487-4.49-2.452-7.932 0.036-3.435 0.941-6.134 2.714-8.097 1.766-1.956 4.099-2.919 6.998-2.888v0c2.621 0.028 4.678 0.863 6.169 2.505v0c0.633 0.674 1.158 1.646 1.576 2.916 0.425 1.27 0.628 2.767 0.61 4.492v0l-1.414 1.571-12.807-0.135c0.04 4.764 1.962 7.166 5.765 7.206zM142.859 8.602c0.018-1.69-0.406-3.05-1.271-4.082-0.865-1.038-2.014-1.565-3.447-1.579-1.432-0.015-2.651 0.48-3.656 1.484-1.005 0.998-1.624 2.354-1.857 4.069v0z" fill="black"></path><path d="M177.844 29.495l8.224-18.932 2.248 0.977-0.409 3.768 0.173 0.075c2.371-1.305 4.976-1.587 7.816-0.846v0l-1.053 3.443c-1.337-0.482-2.741-0.698-4.211-0.646-1.47 0.051-2.735 0.423-3.793 1.115v0l-5.465 12.58z" fill="black"></path><path d="M221.647 53.069v0c-0.477-0.506-0.899-1.02-1.268-1.543v0c-1.568 0.445-2.518 0.826-2.852 1.141v0c-0.152 0.143-0.097 0.464 0.163 0.964v0l2.896 4.852c1.345 2.258 2.108 4.047 2.291 5.365 0.182 1.319-0.276 2.496-1.373 3.531-1.098 1.035-2.379 1.521-3.843 1.457v0c-2.904-0.091-5.721-1.583-8.449-4.477v0c-1.679-1.781-2.8-3.629-3.363-5.545-0.563-1.915-0.23-3.452 1-4.612 1.23-1.159 3.474-1.616 6.733-1.372v0c-0.377-0.887-0.325-1.557 0.155-2.01 0.486-0.458 2.293-0.938 5.422-1.44v0c-0.964-2.655-0.151-5.204 2.439-7.646v0c1.447-1.364 3.196-2.048 5.248-2.05 2.046-0.008 4.002 0.977 5.867 2.955v0c1.078 1.144 1.855 2.298 2.332 3.463v0l4.866 4.113-2.208 2.082-2.325-2.467c-0.382 1.44-1.281 2.827-2.699 4.163-1.417 1.335-3.144 2.007-5.18 2.016-2.037 0.018-3.988-0.962-5.852-2.94zM229.954 51.588v0c2.722-2.566 3.037-4.959 0.943-7.18v0c-0.825-0.875-1.728-1.372-2.708-1.49v0c-1.555-0.149-2.886 0.298-3.994 1.343-1.108 1.044-1.789 2.183-2.042 3.415-0.248 1.227 0.177 2.423 1.274 3.586 1.097 1.164 2.267 1.69 3.509 1.58 1.243-0.111 2.249-0.529 3.018-1.254zM209.764 56.428v0c-0.703 0.663-0.88 1.555-0.529 2.678 0.35 1.122 1.105 2.298 2.264 3.527 1.159 1.23 2.482 2.137 3.97 2.722 1.493 0.59 2.667 0.482 3.522-0.323v0c0.44-0.415 0.558-1.004 0.354-1.768-0.204-0.764-0.763-1.894-1.677-3.392v0l-2.777-4.664c-2.477-0.073-4.186 0.334-5.127 1.22z" fill="black"></path><path d="M238.901 99.975c-3.065-0.007-5.196-0.247-6.394-0.721-1.195-0.467-2.054-1.471-2.579-3.011-0.527-1.547-0.678-3.394-0.454-5.542v0l3.238 0.385c-0.241 1.448-0.211 2.617 0.092 3.505v0c0.262 0.77 0.565 1.24 0.909 1.41v0l0.751 0.361c0.496 0.25 1.25 0.36 2.262 0.332 1.014-0.022 1.8-0.032 2.358-0.032 0.559 0.001 0.994-0.004 1.306-0.015v0l18.217-14.191 1.254 3.682-13.917 10.381 0.06 0.177 17.361-0.27 1.254 3.683z" fill="black"></path><path d="M22.986 176.372l-2.038-0.176c0.129-1.129 0.058-2.136-0.211-3.021v0c-0.518-1.703-1.3-2.395-2.344-2.077v0c-0.898 0.273-1.421 1.672-1.569 4.195v0c-0.062 0.942-0.317 1.87-0.765 2.785-0.446 0.921-1.139 1.524-2.077 1.809v0c-1.35 0.411-2.489 0.275-3.417-0.409-0.919-0.68-1.617-1.801-2.093-3.365-0.478-1.57-0.515-3.23-0.11-4.981v0l2.051 0.182c-0.33 1.445-0.257 2.953 0.221 4.523v0c0.203 0.665 0.506 1.161 0.911 1.489 0.412 0.325 0.864 0.413 1.356 0.263 0.486-0.148 0.833-0.512 1.041-1.091 0.209-0.58 0.348-1.244 0.419-1.992 0.077-0.75 0.174-1.507 0.29-2.269 0.123-0.764 0.406-1.472 0.848-2.122 0.444-0.644 1.068-1.088 1.872-1.334v0c1.251-0.381 2.345-0.249 3.283 0.397 0.938 0.645 1.606 1.623 2.005 2.933 0.399 1.31 0.508 2.731 0.327 4.261z" fill="black"></path><path d="M33.886 225.498c-1.925 0.789-3.324 1.192-4.197 1.208-0.868 0.011-1.666-0.399-2.394-1.231-0.728-0.832-1.3-1.949-1.715-3.351v0l2.124-0.598c0.227 0.966 0.551 1.69 0.972 2.171v0c0.362 0.413 0.673 0.631 0.933 0.653v0l0.559 0.037c0.378 0.02 0.882-0.107 1.511-0.38 0.625-0.279 1.114-0.49 1.468-0.635 0.345-0.145 0.613-0.26 0.807-0.345v0l7.76-13.604 1.738 1.986-6.042 10.102 0.082 0.094 10.812-4.657 1.738 1.985z" fill="black"></path><path d="M90.48 249.971v0l-4.503 9.581-2.36-1.11 4.455-9.477c0.225-0.478 0.206-0.937-0.057-1.375-0.253-0.442-0.695-0.811-1.324-1.106v0c-1.315-0.618-2.899-0.787-4.752-0.505v0l-4.495 9.562-2.36-1.11 5.955-12.667 1.5 0.705 0.011 1.769c1.988-0.518 3.815-0.385 5.482 0.399v0c1.24 0.583 2.078 1.365 2.516 2.346 0.434 0.972 0.412 1.968-0.068 2.988z" fill="black"></path><path d="M137.07 266.724v0c1.474-0.01 2.942-0.459 4.403-1.345v0l0.91 1.829c-1.71 1.097-3.545 1.652-5.506 1.666-1.954 0.014-3.505-0.594-4.654-1.823-1.156-1.229-1.742-3.009-1.759-5.338-0.017-2.336 0.561-4.18 1.733-5.53 1.179-1.35 2.753-2.033 4.721-2.047v0c1.78-0.013 3.185 0.53 4.215 1.629v0c0.434 0.449 0.801 1.103 1.099 1.963 0.305 0.853 0.462 1.864 0.47 3.032v0l-0.942 1.081-8.687 0.062c0.086 3.233 1.418 4.84 3.997 4.821zM140.12 259.923c-0.008-1.147-0.31-2.066-0.907-2.758-0.603-0.691-1.391-1.033-2.364-1.026-0.966 0.007-1.788 0.353-2.465 1.04-0.67 0.693-1.07 1.624-1.2 2.793v0z" fill="black"></path><path d="M186.56 257.861l-5.696-12.786 1.515-0.674 1.693 1.929 0.114-0.051c0.438-1.786 1.493-3.219 3.166-4.299v0l1.237 2.109c-0.854 0.441-1.606 1.043-2.257 1.805-0.644 0.759-1.036 1.562-1.176 2.408v0l3.786 8.498z" fill="black"></path><path d="M228.97 222.565v0c-0.317 0.35-0.644 0.665-0.979 0.943v0c0.387 1.044 0.693 1.669 0.92 1.874v0c0.108 0.098 0.322 0.043 0.642-0.165v0l3.131-2.216c1.46-1.032 2.631-1.647 3.512-1.843 0.881-0.196 1.701 0.049 2.459 0.735 0.758 0.686 1.154 1.528 1.188 2.525v0c0.093 1.969-0.766 3.954-2.577 5.954v0c-1.115 1.232-2.304 2.088-3.564 2.57-1.266 0.486-2.324 0.344-3.174-0.426-0.85-0.77-1.279-2.265-1.286-4.485v0c-0.58 0.309-1.038 0.312-1.373 0.009-0.335-0.303-0.756-1.501-1.264-3.592v0c-1.743 0.795-3.508 0.383-5.297-1.236v0c-1-0.905-1.557-2.052-1.669-3.44-0.113-1.388 0.449-2.764 1.685-4.13v0c0.714-0.789 1.45-1.374 2.209-1.756v0l2.521-3.515 1.531 1.386-1.54 1.701c0.989 0.182 1.973 0.717 2.952 1.604 0.979 0.887 1.53 2.019 1.653 3.396 0.113 1.378-0.447 2.747-1.679 4.107zM227.522 217.033v0c-1.881-1.703-3.517-1.787-4.908-0.251v0c-0.546 0.603-0.832 1.24-0.858 1.91v0c-0.021 1.059 0.352 1.937 1.12 2.633 0.763 0.691 1.568 1.086 2.414 1.187 0.847 0.101 1.634-0.251 2.363-1.055 0.728-0.804 1.022-1.621 0.882-2.451-0.145-0.835-0.483-1.492-1.013-1.973zM231.886 230.425v0c0.485 0.439 1.096 0.509 1.834 0.212 0.738-0.298 1.493-0.872 2.263-1.722 0.765-0.845 1.309-1.788 1.632-2.828 0.313-1.039 0.175-1.825-0.412-2.357v0c-0.304-0.275-0.71-0.324-1.219-0.147-0.503 0.173-1.237 0.61-2.202 1.313v0l-3.01 2.129c0.088 1.674 0.459 2.808 1.114 3.4z" fill="black"></path><path d="M262.248 176.981c1.675 1.234 2.746 2.22 3.214 2.957 0.461 0.735 0.526 1.631 0.194 2.686-0.332 1.055-0.989 2.124-1.971 3.206v0l-1.616-1.503c0.707-0.696 1.157-1.349 1.349-1.959v0c0.165-0.524 0.189-0.903 0.073-1.136v0l-0.259-0.497c-0.179-0.333-0.55-0.698-1.11-1.093-0.563-0.388-0.998-0.697-1.306-0.925-0.303-0.219-0.541-0.389-0.714-0.509v0l-15.655 0.444 0.792-2.517 11.772-0.091 0.037-0.119-9.599-6.814 0.792-2.517z" fill="black"></path><path d="M1.739 136.089c0-4.469 3.623-8.092 8.092-8.092 4.469 0 8.092 3.623 8.092 8.092 0 4.469-3.623 8.092-8.092 8.092-4.469 0-8.092-3.623-8.092-8.092z" fill="black"></path><path d="M250.951 136.089c0-4.469 3.623-8.092 8.092-8.092 4.469 0 8.092 3.623 8.092 8.092 0 4.469-3.623 8.092-8.092 8.092-4.469 0-8.092-3.623-8.092-8.092z" fill="black"></path></g><g id="SvgjsG2893"></g></svg></g></svg></g></svg></g><defs><mask></mask></defs></svg><rect width="395.52" height="147.72242918342627" fill="black" stroke="none" visibility="hidden"></rect></g></mask></svg><rect width="395.52" height="147.72242918342627" fill="black" stroke="none" visibility="hidden"></rect></g></mask><linearGradient x1="0.054" x2="0.941" y1="0.5" y2="0.5" id="38264912-29e5-4dd7-97bd-123601de08c7"><stop stop-color="#9c7945" offset="0"></stop><stop stop-color="#faf3aa" offset="0.498"></stop><stop stop-color="#9c7945" offset="1"></stop></linearGradient><rect width="395.52" height="147.72242918342627" fill="url(#38264912-29e5-4dd7-97bd-123601de08c7)" mask="url(#5c52d692-1d50-45ff-81ac-3753f4146d49)" data-fill-palette-color="accent"></rect></svg><rect width="395.52" height="147.72242918342627" fill="none" stroke="none" visibility="hidden"></rect></g></svg></g></svg>